<!-- icon666.com - MILLIONS vector ICONS FREE --><svg id="Capa_1" enable-background="new 0 0 511.979 511.979" viewBox="0 0 511.979 511.979" xmlns="http://www.w3.org/2000/svg"><g><path d="m426.472 108.872-104.479-104.478c-2.813-2.814-6.628-4.394-10.606-4.394h-240.827c-8.284 0-15 6.716-15 15v456.225c0 8.284 6.716 15 15 15h345.305c8.284 0 15-6.716 15-15v-351.746c0-3.979-1.58-7.794-4.393-10.607z" fill="#fff5f5"></path><path d="m426.472 108.872-104.479-104.478c-2.813-2.814-6.628-4.394-10.606-4.394h-68.174v486.225h172.653c8.284 0 15-6.716 15-15v-351.746c-.001-3.979-1.581-7.794-4.394-10.607z" fill="#eee1dd"></path><g><g fill="#555a6e"><path d="m259.198 146.166h-135.353c-8.284 0-15-6.716-15-15s6.716-15 15-15h135.353c8.284 0 15 6.716 15 15s-6.716 15-15 15z"></path><path d="m259.198 90.193h-135.353c-8.284 0-15-6.716-15-15s6.716-15 15-15h135.353c8.284 0 15 6.716 15 15s-6.716 15-15 15z"></path><path d="m360.926 202.14h-237.081c-8.284 0-15-6.716-15-15s6.716-15 15-15h237.082c8.284 0 15 6.716 15 15s-6.716 15-15.001 15z"></path><path d="m362.58 258.112h-238.735c-8.284 0-15-6.716-15-15s6.716-15 15-15h238.735c8.284 0 15 6.716 15 15s-6.716 15-15 15z"></path></g><path d="m274.198 131.166c0-8.284-6.716-15-15-15h-15.985v30h15.985c8.284 0 15-6.716 15-15z" fill="#463c4b"></path><path d="m274.198 75.193c0-8.284-6.716-15-15-15h-15.985v30h15.985c8.284 0 15-6.715 15-15z" fill="#463c4b"></path><path d="m375.926 187.14c0-8.284-6.716-15-15-15h-117.713v30h117.714c8.284 0 14.999-6.716 14.999-15z" fill="#463c4b"></path><path d="m362.58 228.112h-119.367v30h119.367c8.284 0 15-6.716 15-15s-6.716-15-15-15z" fill="#463c4b"></path><path d="m255.879 426.031h-132.034c-8.284 0-15-6.716-15-15s6.716-15 15-15h132.034c8.284 0 15 6.716 15 15s-6.716 15-15 15z" fill="#555a6e"></path><path d="m255.879 370.059h-132.034c-8.284 0-15-6.716-15-15s6.716-15 15-15h132.034c8.284 0 15 6.716 15 15s-6.716 15-15 15z" fill="#555a6e"></path><path d="m255.879 314.086h-132.034c-8.284 0-15-6.716-15-15s6.716-15 15-15h132.034c8.284 0 15 6.716 15 15s-6.716 15-15 15z" fill="#555a6e"></path></g><path d="m430.865 119.478c0-3.978-1.581-7.794-4.394-10.606l-104.478-104.478c-2.553-2.553-5.933-4.077-9.51-4.339v89.426c0 16.567 13.43 29.998 29.998 29.998h88.384z" fill="#c4b4af"></path><path d="m444.013 439.569-79.233-79.233c-2.813-2.813-6.628-4.394-10.606-4.394-3.979 0-7.793 1.58-10.606 4.394l-38.791 38.791c-5.858 5.857-5.858 15.355 0 21.213l79.232 79.232c8.271 8.271 19.137 12.407 30.002 12.407s21.73-4.136 30.002-12.407c16.542-16.543 16.542-43.46 0-60.003z" fill="#c57a44"></path><ellipse cx="270.863" cy="326.423" fill="#eee1dd" rx="105.39" ry="105.39" transform="matrix(.707 -.707 .707 .707 -151.482 287.136)"></ellipse><path d="m270.863 221.033c-9.566 0-18.835 1.289-27.651 3.688v203.403c8.816 2.399 18.085 3.688 27.651 3.688 58.112 0 105.389-47.277 105.389-105.39s-47.277-105.389-105.389-105.389z" fill="#c4b4af"></path><ellipse cx="270.863" cy="326.423" fill="#29b2ec" rx="75.39" ry="75.39" transform="matrix(.383 -.924 .924 .383 -134.367 451.751)"></ellipse><path d="m270.863 251.033c-9.76 0-19.083 1.885-27.651 5.276v140.228c8.568 3.391 17.891 5.276 27.651 5.276 41.57 0 75.389-33.819 75.389-75.39s-33.819-75.39-75.389-75.39z" fill="#1482f0"></path></g></svg>