<!-- icon666.com - MILLIONS OF FREE VECTOR ICONS --><svg id="Layer_3" viewBox="0 0 64 64" xmlns="http://www.w3.org/2000/svg" data-name="Layer 3"><path d="m2 2h60v60h-60z" fill="#474747"></path><path d="m47.313 32a10.995 10.995 0 1 0 -15.313-15.313 10.995 10.995 0 1 0 -15.313 15.313 10.995 10.995 0 1 0 15.313 15.313 10.995 10.995 0 1 0 15.313-15.313z" fill="#f2f2f2"></path><path d="m62 16a14 14 0 0 1 -14-14h14z" fill="#f4a93c"></path><path d="m62 6-.172.172a9.656 9.656 0 0 1 -6.828 2.828 9.656 9.656 0 0 1 2.828-6.828l.172-.172h4z" fill="#f2f2f2"></path><path d="m2 16a14 14 0 0 0 14-14h-14z" fill="#f4a93c"></path><path d="m2 6 .172.172a9.656 9.656 0 0 0 6.828 2.828 9.656 9.656 0 0 0 -2.828-6.828l-.172-.172h-4z" fill="#f2f2f2"></path><path d="m62 48a14 14 0 0 0 -14 14h14z" fill="#f4a93c"></path><path d="m62 58-.172-.172a9.656 9.656 0 0 0 -6.828-2.828 9.656 9.656 0 0 0 2.828 6.828l.172.172h4z" fill="#f2f2f2"></path><path d="m2 48a14 14 0 0 1 14 14h-14z" fill="#f4a93c"></path><path d="m2 58 .172-.172a9.656 9.656 0 0 1 6.828-2.828 9.656 9.656 0 0 1 -2.828 6.828l-.172.172h-4z" fill="#f2f2f2"></path><g fill="#f4a93c"><circle cx="32" cy="32" r="4"></circle><path d="m35.973 25.055 1.9-3.8a10.655 10.655 0 0 0 1.127-4.771 10.658 10.658 0 0 0 -4.463-8.672l-2.537-1.812-2.537 1.812a10.658 10.658 0 0 0 -4.463 8.672 10.655 10.655 0 0 0 1.125 4.766l1.9 3.805a8.008 8.008 0 0 1 7.946 0z"></path><path d="m28.027 38.945-1.9 3.805a10.655 10.655 0 0 0 -1.127 4.766 10.658 10.658 0 0 0 4.463 8.672l2.537 1.812 2.537-1.812a10.658 10.658 0 0 0 4.463-8.672 10.655 10.655 0 0 0 -1.125-4.766l-1.9-3.8a8.008 8.008 0 0 1 -7.946 0z"></path><path d="m38.945 35.973 3.805 1.9a10.655 10.655 0 0 0 4.766 1.127 10.658 10.658 0 0 0 8.672-4.463l1.812-2.537-1.812-2.537a10.658 10.658 0 0 0 -8.672-4.463 10.655 10.655 0 0 0 -4.766 1.125l-3.8 1.9a8.008 8.008 0 0 1 0 7.946z"></path><path d="m25.055 28.027-3.8-1.9a10.655 10.655 0 0 0 -4.771-1.127 10.658 10.658 0 0 0 -8.672 4.463l-1.812 2.537 1.812 2.537a10.658 10.658 0 0 0 8.672 4.463 10.655 10.655 0 0 0 4.766-1.125l3.805-1.9a8.008 8.008 0 0 1 0-7.946z"></path></g><path d="m32.212 23.277-.212.545-.212-.551a24.846 24.846 0 0 1 -1.788-9.271h-2a26.815 26.815 0 0 0 1.925 10l.1.25a8.034 8.034 0 0 1 1.906-.248h.073s.046 0 .069 0a8 8 0 0 1 1.908.248l.094-.239a26.837 26.837 0 0 0 1.925-10.011h-2a24.862 24.862 0 0 1 -1.788 9.277z" fill="#d5883e"></path><path d="m33.97 39.748a8 8 0 0 1 -1.908.252c-.021 0-.041 0-.062 0s-.064-.006-.1-.006a8.073 8.073 0 0 1 -1.885-.248l-.09.24a26.837 26.837 0 0 0 -1.925 10.014h2a24.884 24.884 0 0 1 1.793-9.29l.2-.517.226.536a24.846 24.846 0 0 1 1.781 9.271h2a26.839 26.839 0 0 0 -1.937-10.031z" fill="#d5883e"></path><path d="m50 30v-2a26.878 26.878 0 0 0 -10.069 1.953l-.181.085a8.029 8.029 0 0 1 .241 1.827c0 .046.009.089.009.135s-.008.09-.009.136a8.034 8.034 0 0 1 -.239 1.814l.119.067a.929.929 0 0 0 .115.054 26.837 26.837 0 0 0 10.014 1.929v-2a24.827 24.827 0 0 1 -9.212-1.763l-.465-.259.406-.192a24.846 24.846 0 0 1 9.271-1.786z" fill="#d5883e"></path><path d="m24.014 29.929a26.837 26.837 0 0 0 -10.014-1.929v2a24.968 24.968 0 0 1 9.331 1.808l.389.127-.52.307a24.828 24.828 0 0 1 -9.2 1.758v2a26.837 26.837 0 0 0 10.014-1.929.97.97 0 0 0 .137-.071l.1-.057a7.98 7.98 0 0 1 -.251-1.915v-.028c0-.081.013-.159.016-.24a8.087 8.087 0 0 1 .24-1.752z" fill="#d5883e"></path></svg>