<svg id="Layer_1" data-name="Layer 1" xmlns="http://www.w3.org/2000/svg" viewBox="0 0 1031.82 552.4"><defs><style>.cls-1{fill:#f59b32;}.cls-2{fill:#f79839;}.cls-3{fill:#37ab49;}.cls-4{fill:#47b257;}</style></defs><title>34</title><path d="M1891.3,555.1c-3.92-1-7.44.72-8.39,4.55-3.28,13.32-8.25,26.1-12.63,39.06-6.44,19.07-12.85,38.16-20.77,56.69-1.67,4-3.83,7.69-5.77,11.52a127.88,127.88,0,0,1-1.87-25.69c.48-18.37,3.36-36.48,5.94-54.62,2.09-14.61,1.88-28.89-4.35-42.7-4.25-9.41-11.81-14.87-20.59-13.69-6.08.81-10.87,4.32-15,8.64-5.46,5.74-9.27,12.61-12.79,19.63-3.79,7.56-6.84,15.45-9.93,23.36a6.31,6.31,0,0,1-.44-2.28q-.18-16.62-.35-33.24c-.07-7-2.35-10.32-8.86-12.75-11.88-4.44-19.93,1-19.93,13.6v34.29a10.27,10.27,0,0,1-.63,4.41c-6.36,13.91-12.48,27.94-20.1,41.24-1.06,1.87-2.34,3.63-3.53,5.43a64.58,64.58,0,0,1,.14-12.69c2.48-22.23,5.06-44.44,7.61-66.66.76-6.6-1.7-11.32-7.17-13.45a18.55,18.55,0,0,0-14.49.3,8,8,0,0,0-5.12,7.2c-.55,6.79-.84,13.6-1.6,20.36s-1.54,13.65-4.63,20.06c-4.1,8.49-8,17.1-11.45,25.87-7.26,18.31-16.48,35.7-24.61,53.6-1.07,2.36-2.3,2.09-3.93.85a22.6,22.6,0,0,1-5.81-7.22c-3.31-5.84-5.58-12.11-8-18.33-1.11-2.83-.31-4.63,2.11-6.06a60.65,60.65,0,0,0,9-6.46c12.19-10.7,18.75-24.56,22.64-39.95,1.91-7.56,2.93-15.16,1.33-22.92-2.87-13.93-12.28-21.21-26.13-20.13-7.07.56-12.53,4.3-17.43,9-10.61,10.26-17.81,22.85-24.35,35.86-2,4-3.65,8.3-5.87,13.39-1.78-9.24-1.22-17.42-.75-25.59s3.15-14.89,10.16-20.31c16.73-12.92,31.16-28.18,42.33-46.23,7.5-12.12,12.46-25,11.73-39.77-1.08-21.88-20.11-35.06-40.75-27.9-12.87,4.46-21.34,13.71-28,25-15.41,26.31-21.1,55.34-23.51,85.2-.93,11.48-1,23-1.38,34.57,0,1.11.15,2.63-1.41,2.67s-1.21-1.61-1.37-2.56c-1.35-8.07-4.47-15.37-8.46-22.49-9.54-17.07-34-19.58-47.49-9.27a66.25,66.25,0,0,0-15.77,16.83c-.94,1.47-1.92,2.91-2.9,4.39,0-9,0-17.76,0-26.51a11.7,11.7,0,0,0-2.8-8.3c-4-4.48-12.45-6.44-18.25-4.22-5.23,2-7.64,6.46-7.77,13.74-.15,8.5-.86,16.77-3.79,25-7.77,22-15.12,44.17-23.31,66A123.12,123.12,0,0,1,1439.88,667a7.75,7.75,0,0,1-.6-1.69c-.47-9.9-1.27-19.79-.69-29.73,1.17-20.26,5-40.28,5.57-60.6.29-10.52.34-21-3.18-31.13-6.7-19.3-27.82-23.55-41.47-8.36a70.86,70.86,0,0,0-9.66,14.28c-2.38,4.48-4.84,8.92-7.34,13.53-1.82-3.93-3.36-7.65-5.24-11.19-2.48-4.7-5.93-8.48-11.18-10.27-8.25-2.8-17.18.41-23.35,8.55-4.69,6.18-8.08,13.1-11.36,20.09-.52,1.11-.77,2.57-2.27,3.17,0-3.92,0-7.6,0-11.27.05-4.26.24-8.53.26-12.8,0-10.46-7.32-16.37-17.73-14.28-7.36,1.48-10.16,4.88-10.24,12.45-.07,7.84-.39,15.7-.16,23.53.29,9.59-1,18.58-5.79,27.2-7.32,13.28-12,27.91-20.44,40.67a9.8,9.8,0,0,1-3.27,3.47c-1.82,1-3.15,1.43-3.35-1.48-.24-3.56-1.06-7.09-1.14-10.65-.61-27.23-.12-54.43,3.15-81.52.7-5.74-1.72-10.12-7-12.67-9-4.42-18.94-.33-22,9.18-2.39,7.44-4.62,14.94-6.89,22.43a484,484,0,0,1-16,45.92,74.81,74.81,0,0,1-9,15.63c-3.07-8.44-3.68-16.71-4.15-25-1.05-18.64,1-37.09,3.61-55.5,1.22-8.76-2.73-14.13-11.55-15.52-9.28-1.46-15.81,3.15-17.4,12.35-.36,2-.44,4.12-.72,6.18-3,21.08-5,42.16-.32,63.28,2.27,10.22,5.49,20.06,12.79,27.94,7.89,8.52,18.63,9.12,27.51,1.68a54.64,54.64,0,0,0,13.42-17.42c1.74-3.45,3.24-7,5.19-11.33.54,4.85.75,8.94,1.45,12.94,2.21,12.6,5.67,24.73,14.66,34.47,6,6.56,11.09,7.11,18.59,2.17,5.89-3.87,9.54-9.65,13-15.49,5.18-8.64,9.71-17.64,14.32-27,.9,10.09,3.36,13.18,11.49,14.78,8.54,1.69,14.34-1.73,17.06-9.87,2.34-7,4.72-13.94,7.27-20.85,4.55-12.3,9.29-24.54,15.66-36.05a22,22,0,0,1,5.22-7,68.89,68.89,0,0,1,1.94,13.7c.25,10.09-1.26,20-3.17,29.87-.58,2.94-.5,5.79,1.11,8.35,3.14,5,8.12,6.95,13.64,6.53,6-.45,11.22-2.66,13.32-9.19a423.73,423.73,0,0,1,22-53.57,54.25,54.25,0,0,1,6.85-11.17,10.3,10.3,0,0,1,1.64,4.73c1.54,7.56,1.06,15.14.41,22.74-2,22.75-5.11,45.41-4.4,68.33.34,11.35,1.88,22.49,6.19,33.1,7.09,17.44,22.51,20,34.73,5.78a48.14,48.14,0,0,0,7.6-11.91,226,226,0,0,0,11.89-32c1.08-3.93,2.33-7.81,3.5-11.71,0,18-.45,35.87-1.09,53.72Q1471,732.92,1469,784.23c-.23,5.71,2.15,9.69,7.14,12.34,8.79,4.68,18.52.91,21.7-8.46A38.78,38.78,0,0,0,1500,777c.21-5.87.54-11.75.8-17.62,1.35-29.61,3.6-59.15,5.58-88.72,1.21-18.07,2.28-36.1,6.1-53.87,2.29-10.61,4.67-21.14,9.66-30.86,2.54-5,5.64-9.57,10.73-12.35,5.37-2.93,10.76-1.37,14,3.76,5.85,9.29,6.57,19.73,7,30.26a3.21,3.21,0,0,1-1.64,2.84c-6,4.16-11.16,9.29-16.61,14.1-9.82,8.67-17.24,18.94-19.88,32-1.43,7.16-1.48,14.4,3.58,20.38,7.17,8.49,21.35,10.9,30.59,4.65,9.7-6.57,18-14.82,23.66-25.27,6.26-11.64,8-24.41,8.32-37.44a51.3,51.3,0,0,1,1-10c1.43,1.6.93,3.06,1,4.34a189.72,189.72,0,0,0,8.38,46.47,58.29,58.29,0,0,0,9.47,18.69,11.73,11.73,0,0,0,13.27,4.11c4.45-1.56,5.52-3.55,5.55-10.2,0-8-1.25-15.84-2.31-23.73-.73-5.34-1.58-10.78.28-16.08,4-11.29,8.15-22.49,13.18-33.37,5.35-11.55,12.51-22,19-32.88,1.23-2.06,3-3.49,5.74-2.92s3.85,2.47,4.29,4.87a40.64,40.64,0,0,1,.8,6.85c.15,10.2-3.23,19.45-7.95,28.29-6.06,11.35-14.77,20.28-25.36,27.42-3.57,2.4-4.86,5.35-3.54,9.45.42,1.32.58,2.72,1.12,4,5.61,13.14,11.31,26.12,21.44,36.75,8.3,8.71,21.43,10,30,2a36.21,36.21,0,0,0,7.72-11.4c5.92-12.72,11.68-25.51,17.53-38.27.46-1,.5-2.23,2.09-3,0,2-.11,3.84,0,5.62.5,7,1.9,13.74,5.67,19.72,5.49,8.71,14.8,9.76,22.22,2.69a64.53,64.53,0,0,0,10.25-13.44c4.55-7.42,8.46-15.16,12.45-23,.34,3.68.32,7.29.35,10.91a12.81,12.81,0,0,0,9.19,12.41c7.51,2.4,15.09-.62,19.47-8,6-10,9.46-21.17,13.28-32.13,4.5-12.91,8.29-26.08,14-38.55a54.29,54.29,0,0,1,6.76-11.81c.16,3.2.44,5.68.38,8.16-.32,13.85-2,27.6-3.27,41.37-1.53,15.95-3.07,31.87-2.33,47.95.56,11.94,3.24,22.91,10.74,32.54s17.6,11,26.84,2.72a52.92,52.92,0,0,0,12.88-18.62c6.91-15.76,11.44-32.29,16.18-48.76,5.45-18.91,11.18-37.73,15.94-56.83C1896.63,559.19,1894.88,556,1891.3,555.1ZM1618,522.67c3.13-18.1,9-35.17,18.75-50.83a28.33,28.33,0,0,1,8.51-9c5.82-3.79,11.11-2.43,14.34,3.83,2.61,5.06,2.48,10.49,1.71,15.9-1.55,10.81-7.11,19.88-13.09,28.66-9,13.14-20.61,23.8-33.23,34.87A200,200,0,0,1,1618,522.67ZM1547.18,661c-1.79,3.77-4,7.33-8.41,8.63s-7.57-.78-8.24-5.24c-.82-5.46,1.17-10.32,3.85-14.74,4.9-8.09,10.29-15.86,17.52-22.12.5-.42.88-1.12,2.22-.8C1553.81,638.56,1552.33,650.13,1547.18,661Z" transform="translate(-947.3 -246.18)"/><path d="M1190.34,428.46c-2.55-14.15-7-27.72-16.27-39.14-10.68-13.12-24.19-18.85-41-15.1a74.45,74.45,0,0,0-34,17.56c-9,8.09-16.16,17.68-22.59,27.87-1.7,2.69-2.94,5.69-5.3,8.31-1.27-3.61-2.42-6.95-3.65-10.27-6.52-17.69-15.79-33.58-30.79-45.48-11.8-9.37-27.68-9.43-39.84-.61-6.55,4.76-10.88,11.2-14.24,18.4-6.76,14.53-9.43,30.05-10.72,45.86a6.87,6.87,0,0,1-3.06,5.32c-12.38,9.8-20.25,22.21-21.52,38.29,0,3.77,0,7.55,0,11.32a47.07,47.07,0,0,0,7.43,21.68,28.44,28.44,0,0,0,5.3,6.37c3.71,3.2,9.65,2.7,13.55-1,2.23-2.15,1.83-3.61-1.64-8.78-7.32-10.89-9.46-22.85-6.76-35.65,1.24-5.81,2.93-11.5,6.75-16.93,1.83,4.37,2.29,8.47,3.25,12.43,1.82,7.44,4.67,14.19,11.14,18.93,4.68,3.43,9.44,3.82,14.57,1.1a26.89,26.89,0,0,0,14.5-26.56c-1.24-12.12-9.13-21.72-20.82-24.92-2.38-.65-3.16-1.45-2.8-3.92,2-13.41,5.26-26.4,12-38.32a23,23,0,0,1,5.19-6.43c4.85-4.06,10.2-3.49,13.57,1.81a78.85,78.85,0,0,1,11.44,30.85c3.74,25.56,6.29,51.27,8,77a30.86,30.86,0,0,1-.68,8.57c-6,28.16-13.33,56.05-16.41,84.79-2,18.9-2.52,37.72,1,56.49,1.56,8.39,4.19,16.32,11.06,22.09,8.12,6.82,17.61,6.48,25.1-1a55.18,55.18,0,0,0,12.94-21.44c6.49-18.79,9-38.35,9.62-58.09,1.11-34.18-1-68.24-4.51-102.23-.86-8.43-1-16.53,1.82-24.85,6.23-18.28,12.46-36.42,25.75-51.11,6.75-7.46,13.33-15.1,23.15-18.71,4.56-1.67,6.28-1.08,9.3,2.61,5.14,6.26,7.14,13.87,9.12,21.43,3.76,14.35,5,29.05,5.41,43.83.51,20.18-1.13,40.09-7.41,59.43-2.18,6.73-5.06,13.15-10.28,18.14-10.34,9.88-25.57,5.73-29.36-7.94a25.19,25.19,0,0,1-1.11-6.1c-.1-6.23.41-12.29,6.13-16.41,2.51-1.8,4.74-1.93,7.15.22a28.77,28.77,0,0,0,10.28,6.23c7.28,2.32,14-2.71,13.8-10.26a15.28,15.28,0,0,0-11.68-14.2c-11.78-2.9-22.64-.9-32.32,6.67-2.76,2.17-5.26,4.52-6.49,7.91a58.11,58.11,0,0,0-3.71,23c1.11,20.69,15.38,34.47,35.29,33.64,9.69-.4,18.4-4.05,26.48-9.2,15-9.55,24.57-23.5,31.06-39.63C1193.34,485.22,1195.52,457.11,1190.34,428.46Zm-189.19,37.75c0,3-2.95,6.13-6.1,6.51-3.45.42-4.26-2.23-5-4.61a39.93,39.93,0,0,1-1.24-13.61c.14-2.42,1.22-2.19,2.84-1.75C996.72,454.15,1001.21,460.52,1001.15,466.21ZM1053,624.93a102.88,102.88,0,0,1-2.93,19.79c-.39,1.59-1,3.56-2.6,3.63s-2.51-1.77-3-3.38a67.32,67.32,0,0,1-2.59-19.82c0-20.67,1.11-41.26,5.4-61.55,1-4.83,2.47-9.58,3.79-14.35.19-.68.12-1.69,1.65-1.93C1053.6,573.28,1054.22,599.09,1053,624.93Z" transform="translate(-947.3 -246.18)"/><path class="cls-1" d="M1869.11,406.71c-.26,23.18-4.8,45.34-16.19,65.78-5.11,9.17-11.51,17.31-20.73,22.79-10.93,6.48-22.59,5-31.66-3.94-8.9-8.78-13.34-19.9-15.74-31.78-6.94-34.48-2.15-67.22,15.86-97.67A51.4,51.4,0,0,1,1818,343.82c11.92-7.28,24.33-5.51,33.81,4.79,7.06,7.68,11,17,13.58,26.92A112.55,112.55,0,0,1,1869.11,406.71Z" transform="translate(-947.3 -246.18)"/><path d="M1327.42,371.15q-.74,30.81-1.52,61.61c-.1,4-.32,8.07-.63,12.09-.43,5.71-3.85,9.45-8.82,9.86-6,.48-9.47-2-10.64-8.36-2-10.92-2.12-22-2.64-33.07-.37-8.07-.65-16.14-.77-24.21,0-2.14-.79-2.46-2.64-2.33q-13.48.93-27,.64c-1.93,0-2.2.66-2.24,2.36-.39,16.72-.88,33.43-1.35,50.15-.05,1.5-.13,3-.32,4.49-1.17,8.79-9.07,13-17.1,9.19-3.79-1.81-4.91-5.28-5.48-9-1.9-12.57-2.3-25.25-2.82-37.92q-2.19-53.1-2.12-106.23c0-6.73,2.52-9.85,9.12-11.32a24.3,24.3,0,0,1,14.63.88c4.17,1.67,6.26,4.64,6.22,9.34-.21,22.28-.2,44.56-.46,66.83,0,3.21.84,4,4,4,8.07,0,16.15.26,24.21.66,2.39.13,2.81-.62,2.77-2.79-.48-22.73-.9-45.46-.74-68.19,0-6.4,2.48-9.38,8.78-10.85a18.72,18.72,0,0,1,11.87.92,8.66,8.66,0,0,1,5.72,8.61Q1327.38,334.79,1327.42,371.15Z" transform="translate(-947.3 -246.18)"/><path class="cls-1" d="M1929.87,416.76c-.92,24.91-9,48.25-28.09,66.94-10.8,10.57-23.64,17.16-38.91,18.43a51.4,51.4,0,0,1-22.7-3.59c-1.38-.53-2.11-.91-.54-2.2,16.29-13.37,24.4-31.55,29.5-51.27,6.49-25.12,7.28-50.34-.24-75.46a62,62,0,0,0-11.08-21.74c-1.42-1.74-.82-2.41.64-3.38,5.32-3.52,11.25-3.18,17.09-2.44,20.92,2.62,35.08,14.69,44.7,32.73C1927,387.46,1929.59,401.2,1929.87,416.76Z" transform="translate(-947.3 -246.18)"/><path class="cls-1" d="M1817.35,337.89c-23.33,15.51-32.44,39.4-37.68,65.23-4.51,22.22-4.33,44.47,2.56,66.35a64.75,64.75,0,0,0,7.81,16.9c1.39,2.09.82,2.58-1.39,3-21.2,3.67-37.84-4-50.56-20.7-10-13.17-14.61-28.48-15.3-44.83-1.14-26.89,6.17-51.19,24.15-71.6,12.25-13.91,27.37-22.5,46.56-22.19C1801.36,330.14,1811.72,333.57,1817.35,337.89Z" transform="translate(-947.3 -246.18)"/><path d="M1627.06,356.59c-.49-16-2.58-31.73-9.22-46.49-4.58-10.15-11.14-18.59-22.75-20.94a38.92,38.92,0,0,0-31.81,7.09c-10.79,7.94-16.73,19.22-20.16,31.82-7.66,28.17-6.39,56.38.46,84.49,2.83,11.62,7.15,22.63,15.3,31.74,12.46,13.94,34.53,15.45,47.87,3.17,6.17-5.68,9.87-13,12.56-20.8,6.64-19.24,7.6-39.27,7.77-59.36C1627.08,363.73,1627.18,360.16,1627.06,356.59Zm-21.51,68.66a35.48,35.48,0,0,1-4.88,9.84c-5.37,7.34-13.35,7.75-19.22.77-5.19-6.17-7.47-13.7-9.19-21.37-4.44-19.67-4.19-39.57-2.5-59.5,1.06-12.53,3-24.91,7.24-36.83a38.26,38.26,0,0,1,4.94-9.83c5.66-7.81,14.28-8.05,20.34-.53,4.69,5.83,6.42,12.91,8,20,2.75,12.56,3.27,25.34,3.47,38.63C1613.21,386,1612,406,1605.55,425.25Z" transform="translate(-947.3 -246.18)"/><path d="M1344.4,363.83c0-21.12.13-42.24-.08-63.36-.06-5.89,1.74-9.61,9.48-11.45,6-1.43,12.21-.59,18.3-.5,10.84.17,21.68.77,32.52,1.21,1.49.06,3,.16,4.48.34,5,.6,6,1.66,6,6.1.07,4.64-1.13,6.05-5.88,6.8-10.52,1.65-21.16,1.55-31.76,1.82-2.31,0-3.1.42-3.11,2.95q-.11,28.58-.58,57.12c0,2.55.58,3.26,3.15,3.33,8.42.24,16.83.75,25.23,1.23,4.33.25,5.51,1.52,5.66,5.73.18,4.83-1.14,6.73-5.32,7.36a160.79,160.79,0,0,1-22.78,1.57c-6.12,0-6.09.05-6.22,6.09-.32,14.41-.64,28.82-1,43.23-.06,2.11.15,2.91,2.72,2.74,11.16-.75,22.35-1.18,33.53-1.71,2.88-.14,5.65-.16,6.31,3.66.81,4.68-.49,7.84-4.28,9a178,178,0,0,1-48.37,7.62c-8.65.12-12.62-3.93-13.49-12.45-2.5-24.34-2.94-48.79-3.57-73.23,0-1.72-.15-3.45-.23-5.17Z" transform="translate(-947.3 -246.18)"/><path d="M1451.89,361c-.62,27.38-1.06,49.63-1.72,71.87-.08,2.81.67,3.12,3.15,3,7.72-.34,15.45-.42,23.18-.52,4.71-.06,6.47,1.15,6.91,4.49.61,4.7-1,7.36-5.36,8.61-10.12,2.89-20.56,4.05-30.94,5.47a78.07,78.07,0,0,1-7.92.79c-7.14.25-10.79-2.59-12-9.63-1.94-11.27-2.27-22.69-2.78-34.09-1.3-29-2.11-58.05-2.11-87.11,0-8.07-.18-16.14-.22-24.22,0-5.26,1.75-8.07,6.53-9.79a23.88,23.88,0,0,1,16.6-.17c4.91,1.77,6.68,4.35,6.68,9.62C1451.89,321.6,1451.89,343.86,1451.89,361Z" transform="translate(-947.3 -246.18)"/><path d="M1516.37,359.92c-.65,28.42-1.12,50.68-1.72,72.94-.06,2.29.12,3.17,2.81,3,8-.39,15.92-.44,23.88-.53,4.39-.06,6.07,1.19,6.53,4.53.6,4.31-1,7.29-4.76,8.4-10.22,3-20.79,4.15-31.29,5.61a79.27,79.27,0,0,1-8.27.81c-7,.22-10.63-2.5-11.86-9.39-2-11.27-2.3-22.71-2.82-34.11-1.26-28-2.06-56-2.1-84.06,0-9.35-.07-18.7-.26-28.05-.08-4.23,1.75-7.11,5.51-8.73a23.11,23.11,0,0,1,19.12,0c3.83,1.68,5.28,4.73,5.27,8.87C1516.33,321.5,1516.37,343.79,1516.37,359.92Z" transform="translate(-947.3 -246.18)"/><path class="cls-1" d="M1725.06,456.35c-10.37-7.4-16.82-16.63-21.37-27.34-16.07-37.83-1.2-89.71,32.73-112.87,17.58-12,36.29-14.84,55.82-4.45a50.4,50.4,0,0,1,15,12.7c.51.62,1.63,1.22.8,2.32-.6.81-1.47.46-2.24.27-26.49-6.43-47.24,3.86-63.86,23.38-19.47,22.86-26.4,49.95-23.6,79.66A92.84,92.84,0,0,0,1725.06,456.35Z" transform="translate(-947.3 -246.18)"/><path class="cls-1" d="M1868,335.58c10.84-7.27,22.29-11.31,35.08-10.59,20.33,1.15,34.76,11.93,45,28.78,10.56,17.43,13.45,36.61,11.25,56.63-2.15,19.46-9,37.09-21.55,52.32a72.47,72.47,0,0,1-25,19.88c-.83.39-1.69.74-2.55,1.06-.18.07-.43-.06-1-.16a91.65,91.65,0,0,0,15.38-23.32c13.54-30.63,14.7-61.21-1.84-91.1-9.88-17.83-25-29-45.6-31.94-2.72-.39-5.49-.48-8.23-.74C1868.78,336.38,1868.62,336.11,1868,335.58Z" transform="translate(-947.3 -246.18)"/><path class="cls-2" d="M1631.43,290a52.87,52.87,0,0,1,.76-6.16c2.92-12.32,13.11-17.21,25.77-12.41a26.15,26.15,0,0,1,8.38,4.75c2.14,1.93,3.1,2,4.45-.91a18.65,18.65,0,0,1,14.1-11.13c9.7-1.74,17.61,4.38,19,14.44,1.16,8.15-.6,15.79-4,23.13-5.55,11.84-13.5,21.94-22.63,31.18-1,1-1.78,1.75-3,.2-5.25-6.72-12.58-10.7-19.81-14.79-4.72-2.66-9.5-5.19-13.71-8.68C1634.58,304.5,1631.38,298.06,1631.43,290Z" transform="translate(-947.3 -246.18)"/><path class="cls-3" d="M1811,329.44c4.22-1.94,8-3.35,11.38-5.49,6-3.75,10.36-8.54,12.34-15.57a103.79,103.79,0,0,1,11.37-27,33.56,33.56,0,0,1,10-10.85c1.72-1.12,3.08-1.46,4.74.39a60.38,60.38,0,0,0,7.56,7.09c2.07,1.64,1.58,2.59.06,4.25a100.9,100.9,0,0,0-14.28,19.89c-4.84,8.93-4.16,17.41,1.44,25.72a63,63,0,0,0,8.51,9.72c-2.64,1.3-5.11,2.42-7.47,3.73-1.35.76-2.19-.06-3.15-.61a84.38,84.38,0,0,0-11.86-5.58,22.55,22.55,0,0,0-17.5.36c-1.38.6-2.2.58-3.27-.53C1818.32,332.34,1815.11,330.78,1811,329.44Z" transform="translate(-947.3 -246.18)"/><path class="cls-2" d="M1947.4,489.28c5.44.05,10.28,4.52,10.87,10.62.25,2.58.93,2.69,3.07,2a16.84,16.84,0,0,1,9.57-.16,10.5,10.5,0,0,1,8.18,11.31,15.86,15.86,0,0,1-11.2,14.36c-4.53,1.51-9.29,1.67-13.93,2.54a32.8,32.8,0,0,0-9.86,3.07c-1.41.77-2.26.75-2.91-.89-3.67-9.17-6.55-18.51-5.64-28.56.41-4.46,1.86-8.55,5.27-11.71A9,9,0,0,1,1947.4,489.28Z" transform="translate(-947.3 -246.18)"/><path class="cls-1" d="M1749,303.3a33.13,33.13,0,0,1,11.4-7c18.22-7.05,36.24-6.72,53.87,2A36.24,36.24,0,0,1,1828,310.17a3,3,0,0,1-.17,4.27c-3.47,4.2-8,6.89-12.78,9.24-1.95.95-2.38-.64-3.17-1.61-7-8.71-15.58-15.33-26.31-18.88a55.26,55.26,0,0,0-32.68-.51c-1.1.3-2.21.57-3.33.84C1749.51,303.54,1749.39,303.45,1749,303.3Z" transform="translate(-947.3 -246.18)"/><path class="cls-4" d="M1811,260.8c-3.37-4.36-7.63-6.94-12.22-9.12-2.84-1.36-3.38-3.41-1.42-4.94,1.23-1,2.39-.52,3.58,0,6.12,2.71,11.47,6.44,15.4,11.95a6.81,6.81,0,0,0,3.76,2.67c10.5,3.52,16.34,11.64,20,21.49,1,2.56-1.87,4.67-2.85,8-3-10.14-7.17-18.54-16.66-23.76.28,3.77.72,7-.1,10.28-1.4,5.54-4.44,9.63-10.12,11.24-8.4,2.37-15.72-5-14-14,1.2-6.17,5-10.26,10.77-12.54C1808.24,261.63,1809.43,261.3,1811,260.8Z" transform="translate(-947.3 -246.18)"/><path class="cls-1" d="M1924,324.77a61.69,61.69,0,0,0-21.19-4.81c-13.28-.46-25.3,3.33-36.26,10.58-2.29,1.52-3.45,1.21-5-.78-2.71-3.49-5.21-7.05-6.48-11.34-.42-1.41-.51-2.51,1.2-3.37,19.07-9.48,47.38-8,63.76,5.31A13.61,13.61,0,0,1,1924,324.77Z" transform="translate(-947.3 -246.18)"/><path d="M1730,526.12c-8.36,0-14.68-6.08-14.62-14.17a14.28,14.28,0,0,1,14.48-14.46,14.54,14.54,0,0,1,14.3,14.37A13.94,13.94,0,0,1,1730,526.12Z" transform="translate(-947.3 -246.18)"/></svg>