<?xml version="1.0" encoding="utf-8"?>
<!-- Generator: Adobe Illustrator 16.0.0, SVG Export Plug-In . SVG Version: 6.00 Build 0)  -->
<!DOCTYPE svg PUBLIC "-//W3C//DTD SVG 1.1//EN" "http://www.w3.org/Graphics/SVG/1.1/DTD/svg11.dtd">
<svg version="1.1" id="Layer_1" xmlns="http://www.w3.org/2000/svg" xmlns:xlink="http://www.w3.org/1999/xlink" x="0px" y="0px"
	 width="612px" height="792px" viewBox="0 0 612 792" enable-background="new 0 0 612 792" xml:space="preserve">
<path fill-rule="evenodd" clip-rule="evenodd" fill="#F33C3C" d="M192.125,307.521c7.932,0.01,15.582,1.522,23.051,4.021
	c4.079,1.364,8.045,3.094,12.173,4.268c2.804,0.797,5.79,1.042,8.716,1.298c2.306,0.202,4.375-0.944,6.337-1.962
	c5.567-2.887,11.513-4.634,17.549-6.13c2.935-0.728,5.887-1.434,8.868-1.917c6.216-1.009,12.178-0.299,17.863,2.676
	c3.55,1.858,6.911,3.909,9.994,6.485c3.554,2.97,6.298,6.523,8.347,10.63c1.28,2.565,2.481,5.173,3.621,7.804
	c1.274,2.943,1.871,6.062,2.234,9.244c0.553,4.836-0.449,9.512-1.337,14.198c-1.489,7.862-3.869,15.492-6.656,22.961
	c-4.181,11.207-9.766,21.68-17.405,30.981c-3.244,3.95-6.289,8.064-9.545,12.003c-3.442,4.163-7.354,7.78-12.505,9.81
	c-1.841,0.725-3.578,1.744-5.453,2.348c-5.016,1.613-10.02,1.273-15.047-0.216c-3.427-1.016-6.692-2.644-10.342-2.867
	c-2.472-0.151-4.89-0.146-7.364,0.425c-4.182,0.967-8.423,1.74-12.678,2.302c-3.902,0.515-7.538-0.586-11.002-2.476
	c-4.427-2.415-8.66-5.101-12.408-8.472c-1.765-1.587-3.34-3.396-4.911-5.185c-2.687-3.054-5.224-6.242-7.967-9.243
	c-4.225-4.622-7.649-9.755-10.584-15.275c-2.093-3.938-4.555-7.677-6.74-11.568c-2.974-5.295-5.746-10.744-6.878-16.741
	c-1.38-7.309-1.583-14.71-0.833-22.154c0.394-3.91,1.105-7.708,2.139-11.484c1.305-4.768,3.461-9.061,6.675-12.816
	c5.662-6.617,12.897-10.595,21.369-12.171C184.905,307.644,188.547,307.755,192.125,307.521z"/>
<path fill-rule="evenodd" clip-rule="evenodd" fill="#010101" d="M483.667,289.107c21.095,0,41.863,0,62.979,0
	c0.054,7.352,0.014,14.58,0.03,22.055c-1.057,0.08-1.899,0.198-2.742,0.199c-9.837,0.013-19.675,0.031-29.512-0.019
	c-1.311-0.007-2.238,0.391-3.148,1.309c-0.81,0.817-0.708,1.721-0.708,2.663c-0.005,9.677-0.003,19.354-0.003,29.032
	c0,1.359-0.003,2.719,0.001,4.079c0.007,3.035,1.133,4.194,4.121,4.197c9.118,0.007,18.235,0.002,27.353,0.002
	c0.862,0,1.724,0,2.499,0c0.566,1.967,0.652,17.87,0.138,20.496c-0.782,0.053-1.632,0.161-2.481,0.162
	c-9.197,0.012-18.395,0.004-27.592,0.01c-2.865,0.002-4.035,1.163-4.036,4.003c-0.005,11.197-0.006,22.395,0.001,33.591
	c0.001,2.639,1.239,3.851,3.924,3.853c9.757,0.005,19.515,0.002,29.271,0.002c0.857,0,1.714,0,2.74,0c0,7.835,0,15.381,0,22.896
	c-1.974,0.587-60.789,0.61-62.834,0.037C483.667,388.227,483.667,338.759,483.667,289.107z"/>
<path fill-rule="evenodd" clip-rule="evenodd" fill="#010101" d="M137.373,436.695c-21.131,0-42.294,0-63.39,0
	c-0.125-0.111-0.188-0.156-0.237-0.215c-0.051-0.061-0.124-0.134-0.124-0.202c-0.056-47.974-0.107-95.948-0.154-143.922
	c-0.001-0.876,0.044-1.754,0.092-2.63c0.008-0.141,0.144-0.275,0.312-0.578c8.499,0,17.089,0,25.947,0
	c0.063,1.049,0.175,2.051,0.175,3.053c0.012,39.105,0.01,78.21,0.035,117.315c0,0.913,0.073,1.949,0.5,2.711
	c0.643,1.146,1.743,1.604,3.208,1.593c10.315-0.074,20.632-0.039,30.948-0.039c0.867,0,1.734,0,2.52,0
	C137.858,415.636,137.959,434.262,137.373,436.695z"/>
<path fill-rule="evenodd" clip-rule="evenodd" fill="#7CAE42" d="M218.577,293.772c2.684,2.422,5.138,5.001,6.699,8.354
	c0.919,1.976,1.193,3.95,0.848,6.059c-0.155,0.946-0.221,1.913-0.453,2.838c-0.34,1.364-1.163,1.781-2.507,1.387
	c-7.276-2.138-14.539-4.338-22.045-5.551c-2.833-0.458-5.69-0.816-8.549-1.062c-2.839-0.244-5.459-1.156-8.045-2.239
	c-6.664-2.79-12.817-6.504-18.883-10.388c-3.636-2.328-7.345-4.51-11.675-5.391c-1.855-0.378-2.177-1.395-0.97-2.929
	c0.883-1.123,1.941-2.115,2.967-3.119c4.869-4.767,10.681-8.173,16.853-10.824c4.999-2.147,10.401-2.91,15.895-3.095
	c8.644-0.291,16.797,1.656,24.759,4.774c3.877,1.519,7.223,3.858,9.931,6.946c1.328,1.515,2.278,3.479,2.985,5.394
	c1.22,3.305,1.867,6.765,1.756,10.333c-0.056,1.809-0.01,3.622-0.01,5.772c-2.854-2.571-5.472-4.93-8.09-7.288
	c-2.26-2.234-5.114-3.161-8.024-3.962c-0.084,0.169-0.169,0.337-0.253,0.505C214.035,291.45,216.306,292.611,218.577,293.772z"/>
<path fill-rule="evenodd" clip-rule="evenodd" fill="#FEB8D5" d="M399.619,428.076c0.642,0.437,1.246,0.944,1.932,1.296
	c2.562,1.313,5.141,2.592,7.73,3.849c1.102,0.534,1.399,1.253,1.19,2.507c-0.74,4.457-2.548,8.544-4.209,12.682
	c-0.743,1.853-1.922,3.43-4.097,3.563c-1.154,0.069-2.396-0.168-3.495-0.56c-3.528-1.26-7.044-2.568-10.494-4.027
	c-2.62-1.107-5.132-2.473-7.865-3.809c-2.757,3.845-7.359,4.4-11.563,5.684c-2.965,0.904-6.025,1.499-9.055,2.181
	c-0.769,0.173-1.579,0.156-2.371,0.221c-1.088,0.088-1.866-0.397-2.315-1.359c-0.539-1.156-1.141-2.304-1.504-3.519
	c-1.14-3.808-2.245-7.629-3.229-11.479c-0.496-1.938,0.049-2.817,1.914-3.563c5.266-2.104,10.627-3.874,16.29-4.594
	c1.098-0.139,2.153-0.583,3.243-0.813c2.39-0.502,3.266-0.227,4.18,2.055c1.331,3.322,2.366,6.764,3.514,10.158
	c0.242,0.715,0.426,1.45,0.696,2.385c1.452-3.911,2.782-7.578,4.184-11.217c0.457-1.188,1.009-2.362,1.68-3.441
	c0.894-1.438,1.537-1.635,3.221-1.173c1.763,0.485,3.493,1.086,5.258,1.565c0.911,0.248,1.864,0.342,2.798,0.506l-0.046-0.005
	c0.807,0.323,1.613,0.647,2.421,0.972L399.619,428.076z"/>
<path fill-rule="evenodd" clip-rule="evenodd" fill="#FCF506" d="M340.526,337.946c4.08-0.078,4.706-0.612,5.68-4.799
	c0.232-1.002,0.504-1.996,1.215-3.082c0.236,0.781,0.511,1.553,0.702,2.344c1.782,7.372,3.444,14.775,5.365,22.11
	c1.068,4.08,2.655,8.021,3.836,12.075c1.205,4.133,2.084,8.363,3.317,12.487c1.417,4.736,3.063,9.403,4.616,14.097
	c0.326,0.985,0.746,1.941,1.022,2.938c1.234,4.457,2.434,8.924,3.642,13.388c0.646,2.388-0.285,4.077-2.696,4.549
	c-1.071,0.209-2.224,0.082-3.331,0c-0.876-0.064-1.385-0.615-1.638-1.497c-2.221-7.744-4.521-15.466-6.696-23.222
	c-2.479-8.835-4.783-17.72-7.298-26.545c-1.88-6.595-3.966-13.131-5.979-19.688c-0.534-1.742-1.137-3.463-1.708-5.193
	L340.526,337.946z"/>
<path fill-rule="evenodd" clip-rule="evenodd" fill="#FCF506" d="M352.199,416.229c-2.031,0.62-3.742,1.276-5.513,1.642
	c-1.556,0.32-2.424-0.398-2.652-2.007c-0.892-6.298-3.238-12.173-5.202-18.159c-0.447-1.366-0.837-2.75-1.292-4.113
	c-1.39-4.164-2.794-8.323-4.201-12.48c-1.151-3.405-2.319-6.805-3.472-10.209c-0.923-2.725-1.922-5.427-2.729-8.185
	c-1.503-5.134-2.871-10.307-4.335-15.453c-0.604-2.125-1.312-4.221-2.085-6.689c0.66,0.188,1.018,0.232,1.319,0.386
	c1.189,0.607,2.163,0.317,2.978-0.666c1.008-1.214,1.999-2.441,3.08-3.764c1.131,3.751,2.235,7.349,3.297,10.96
	c0.878,2.987,1.615,6.019,2.575,8.979c1.405,4.331,3.044,8.588,4.415,12.93c1.178,3.727,2.074,7.541,3.174,11.293
	c2.874,9.809,5.785,19.606,8.697,29.404C350.819,412.002,351.454,413.887,352.199,416.229z"/>
<path fill-rule="evenodd" clip-rule="evenodd" fill="#FCF506" d="M427.803,334.655c-1.088,2.873-2.098,5.457-3.047,8.062
	c-2.545,6.977-5.038,13.973-7.603,20.942c-1.764,4.793-3.614,9.555-5.423,14.332c-3.59,9.488-7.181,18.976-10.763,28.467
	c-0.729,1.932-1.422,3.877-2.163,5.901c-2.2-0.106-4.051-0.813-5.743-1.858c-1.234-0.763-1.4-1.557-0.686-2.855
	c3.226-5.855,4.987-12.269,7.145-18.532c0.261-0.755,0.513-1.514,0.774-2.269c1.486-4.298,2.993-8.588,4.457-12.894
	c1.106-3.252,2.139-6.529,3.236-9.785c2.758-8.177,5.645-16.305,9.085-24.229c0.918-2.114,1.558-4.35,2.401-6.748
	c0.334,0.568,0.595,0.941,0.784,1.347c0.563,1.206,1.513,1.594,2.755,1.306C424.549,335.486,426.072,335.086,427.803,334.655z"/>
<path fill-rule="evenodd" clip-rule="evenodd" fill="#FCF506" d="M446.613,341.247c-0.209,0.897-0.286,1.852-0.646,2.684
	c-2.888,6.662-5.937,13.257-8.714,19.964c-1.645,3.97-2.799,8.139-4.337,12.157c-1.51,3.943-3.347,7.762-4.82,11.718
	c-1.809,4.853-3.389,9.79-5.066,14.691c-0.311,0.905-0.586,1.826-0.939,2.715c-1.712,4.295-3.445,8.581-5.17,12.871
	c-0.906,2.253-1.881,2.796-4.225,2.328c-0.534-0.106-1.062-0.253-1.592-0.382l0.041,0.015c-0.331-0.171-0.661-0.342-0.992-0.512
	l0.028,0.023c0.027-0.146,0.126-0.381,0.072-0.424c-1.772-1.401-1.43-2.866-0.663-4.804c3.456-8.745,6.611-17.608,10.025-26.371
	c2.488-6.388,5.299-12.649,7.806-19.03c2.651-6.749,5.143-13.562,7.639-20.37c0.653-1.782,1.065-3.652,1.591-5.492
	c0.196,0.054,0.371,0.047,0.447,0.13c2.209,2.433,3.482,2.567,6.106,0.639c1.144-0.84,2.295-1.67,3.442-2.504L446.613,341.247z"/>
<path fill-rule="evenodd" clip-rule="evenodd" fill="#E2D3BF" d="M332.022,308.994c0.616,0.438,1.382,0.762,1.824,1.334
	c2.429,3.148,4.787,6.351,7.153,9.547c1.554,2.099,2.702,4.521,4.956,6.058c0.291,0.198,0.407,0.652,0.72,1.184
	c-1.667,0.312-2.247,1.369-2.44,2.846c-0.164,1.253-0.54,2.486-0.904,3.704c-0.413,1.383-0.979,1.654-2.322,1.091
	c-0.953-0.399-1.866-0.905-2.769-1.417c-1.825-1.036-2.66-0.813-3.584,1.051c-0.311,0.627-0.563,1.284-0.87,1.995
	c-1.621-0.141-2.688-1.152-3.866-1.896c-2.272-1.437-2.9-1.325-4.47,0.923c-2.166,3.101-2.079,2.934-5.425,1.198
	c-2.358-1.224-3.04-2.887-3.008-5.394c0.071-5.546,1.29-10.875,2.598-16.206c0.342-1.39,0.649-2.789,0.973-4.183
	C324.399,310.217,328.211,309.605,332.022,308.994z"/>
<path fill-rule="evenodd" clip-rule="evenodd" fill="#E2D3BF" d="M447.889,315.131c0.157,3.478,0.773,6.886,0.349,10.453
	c-0.485,4.075-0.112,8.251-0.112,12.522c-2.387-0.793-3.65,1.451-5.437,2.583c-0.845,0.536-1.646,1.141-2.755,1.916
	c-0.825-1.616-1.536-2.925-2.171-4.271c-0.913-1.937-1.874-2.289-3.752-1.279c-0.544,0.292-1.072,0.615-1.937,1.113
	c-0.604-1.47-1.177-2.745-1.656-4.053c-0.854-2.329-1.274-2.582-3.699-1.988c-0.773,0.189-1.54,0.41-2.307,0.624
	c-1.62,0.453-1.873,0.343-2.523-1.204c-0.216-0.514-0.327-1.073-0.559-1.578c-1.032-2.257-0.718-4.187,0.894-6.169
	c2.936-3.612,6.139-6.914,9.815-9.763c1.384-1.072,2.713-2.214,4.104-3.274c0.415-0.317,0.958-0.467,1.442-0.694
	C441.021,311.755,444.454,313.443,447.889,315.131z"/>
<path fill-rule="evenodd" clip-rule="evenodd" fill="#FCF506" d="M428.63,337.924c0.387,0.469,0.573,0.616,0.655,0.807
	c1.291,3.028,1.613,3.145,4.584,1.637c0.353-0.179,0.709-0.351,1.069-0.513c0.065-0.029,0.158,0.004,0.261,0.01
	c1.056,0.738,0.762,1.761,0.215,2.508c-1.667,2.279-2.022,4.981-2.803,7.57c-0.803,2.665-1.916,5.238-2.924,7.839
	c-3.172,8.188-6.324,16.383-9.55,24.55c-2.316,5.864-4.751,11.682-7.105,17.531c-0.895,2.222-1.671,4.491-2.578,6.707
	c-1.265,3.093-2.6,6.156-3.969,9.383c-1.357-0.718-2.687-1.383-3.978-2.113c-1.488-0.843-1.683-1.55-0.981-3.157
	c2.044-4.682,4.162-9.333,6.107-14.056c2.492-6.053,4.906-12.139,7.236-18.255c1.987-5.219,3.808-10.501,5.7-15.756
	c1.838-5.105,3.71-10.199,5.491-15.325c0.601-1.727,0.963-3.536,1.442-5.304C427.847,340.718,428.204,339.455,428.63,337.924z"/>
<path fill-rule="evenodd" clip-rule="evenodd" fill="#FCF506" d="M360.35,414.088c-1.667,0.261-3.072,0.524-4.488,0.691
	c-1.6,0.188-2.258-0.242-2.624-1.729c-1.186-4.802-2.257-9.633-3.519-14.414c-1.63-6.174-3.268-12.351-5.144-18.452
	c-2.908-9.462-6.076-18.843-9.017-28.295c-1.162-3.737-2.023-7.562-3.996-11.006c-0.34-0.593-0.401-1.346-0.704-2.43
	c0.819,0.433,1.32,0.707,1.83,0.966c1.553,0.792,2.26,0.595,3.123-0.926c0.43-0.757,0.786-1.557,1.192-2.372
	c1.493-0.095,1.798,1.059,1.84,2.016c0.125,2.807,1.322,5.228,2.416,7.708c0.45,1.019,0.844,2.073,1.146,3.144
	c2.8,9.909,5.592,19.82,8.35,29.741c1.732,6.229,3.39,12.478,5.104,18.711c0.593,2.154,1.302,4.276,1.879,6.435
	C358.623,407.187,359.439,410.515,360.35,414.088z"/>
<path fill-rule="evenodd" clip-rule="evenodd" fill="#8C5123" d="M232.326,314.8c-0.798-0.107-2.066-0.251-3.324-0.458
	c-1.041-0.171-1.514-0.827-1.346-1.88c1.021-6.407,2.485-12.705,5.375-18.552c1.659-3.359,3.576-6.595,5.473-9.831
	c2.835-4.836,7.134-8.115,11.882-10.884c1.958-1.143,4.034-1.125,5.99-0.215c1.942,0.903,3.812,2.013,5.58,3.226
	c1.784,1.224,1.674,2.409-0.269,3.373c-2.644,1.312-5.425,2.354-8.036,3.726c-4.926,2.587-9.299,5.885-12.488,10.555
	c-0.631,0.923-1.188,1.914-1.921,2.748c-3.552,4.041-3.783,8.796-3.082,13.773c0.011,0.079,0.043,0.154,0.059,0.232
	C236.899,314.02,236.211,314.865,232.326,314.8z"/>
<path fill-rule="evenodd" clip-rule="evenodd" fill="#787D79" d="M372.214,420.039c1.505,0.65,1.641,2.089,1.778,3.404
	c0.048,0.463-0.525,1.065-0.943,1.474c-0.247,0.242-0.742,0.235-1.129,0.328c-4.798,1.161-9.604,2.285-14.389,3.498
	c-1.771,0.45-3.491,1.107-5.231,1.676c-1.893,0.618-2.515,0.475-3.315-0.78c-1.279-2.007-1.216-3.411,0.221-4.829
	c2.212-0.613,4.425-1.223,6.635-1.842C361.204,421.466,366.602,420.156,372.214,420.039z"/>
<path fill-rule="evenodd" clip-rule="evenodd" fill="#787D79" d="M412.109,427.649c0.723,1.51,0.45,3.29-0.638,4.303
	c-0.633,0.589-1.252,0.451-1.968,0.127c-2.681-1.21-5.377-2.39-8.083-3.541c-0.564-0.24-1.199-0.313-1.802-0.462l0.006,0.063
	c-0.808-0.324-1.614-0.648-2.421-0.972l0.046,0.005c-1.224-0.655-2.43-1.346-3.679-1.95c-0.707-0.342-1.479-0.559-2.231-0.802
	c-3.83-1.235-4.307-2.883-1.836-6.379c0.783,0.062,1.631-0.05,2.338,0.215c3.73,1.396,7.438,2.854,11.126,4.36
	c1.913,0.781,3.767,1.705,5.647,2.564c0.074,0.063,0.151,0.123,0.229,0.181C409.933,426.124,411.021,426.887,412.109,427.649z"/>
<path fill-rule="evenodd" clip-rule="evenodd" fill="#787D79" d="M390.655,416.526c-0.053-0.473-0.184-0.952-0.145-1.417
	c0.224-2.652,1.571-3.626,4.044-2.601c3.676,1.524,7.248,3.297,10.873,4.944c1.572,0.714,3.168,1.379,4.753,2.066l-0.028-0.023
	c0.331,0.17,0.661,0.341,0.992,0.512l-0.041-0.015c0.737,0.555,1.442,1.156,2.216,1.652c1.531,0.982,1.76,1.392,1.148,3.144
	c-0.336,0.964-0.325,2.327-1.899,2.326c-1.129-0.821-2.099-1.982-3.724-1.754c-0.078-0.058-0.155-0.118-0.229-0.18
	c-0.149-0.267-0.233-0.665-0.461-0.782c-2.814-1.45-5.605-2.957-8.491-4.25C396.713,418.827,393.662,417.725,390.655,416.526z"/>
<path fill-rule="evenodd" clip-rule="evenodd" fill="#787D79" d="M347.793,423.932c-0.115-0.11-0.254-0.204-0.341-0.334
	c-1.925-2.878-1.46-4.241,1.867-5.199c6.604-1.904,13.385-2.935,20.163-3.971c1.126-0.172,1.94,0.25,2.303,1.247
	c0.374,1.032,0.527,2.145,0.778,3.222c-1.341,0.207-2.683,0.407-4.022,0.623c-4.482,0.723-9.003,1.192-13.345,2.697
	C352.812,423.043,350.457,424.225,347.793,423.932z"/>
<path fill-rule="evenodd" clip-rule="evenodd" fill="#010101" d="M332.022,308.994c-3.812,0.612-7.623,1.224-11.435,1.836
	c0.095-1.35,0.201-2.699,0.281-4.049c0.164-2.789,0.303-5.579,0.478-8.367c0.033-0.531,0.187-1.054,0.295-1.637
	c1.583-0.308,2.284,0.718,2.99,1.648c1.785,2.356,3.522,4.749,5.304,7.108c0.625,0.828,1.358,1.575,1.963,2.415
	C332.078,308.197,331.988,308.64,332.022,308.994z"/>
<path fill-rule="evenodd" clip-rule="evenodd" fill="#010101" d="M447.889,315.131c-3.435-1.688-6.868-3.376-10.303-5.064
	c0.087-0.361,0.063-0.818,0.277-1.069c2.631-3.071,5.29-6.116,7.961-9.151c0.247-0.281,0.623-0.448,1.18-0.836
	c0.396,0.793,1.005,1.451,1.01,2.113C448.042,305.792,447.945,310.462,447.889,315.131z"/>
<path fill-rule="evenodd" clip-rule="evenodd" fill="#E2D3BF" d="M218.577,293.772c-2.271-1.161-4.542-2.323-6.813-3.484
	c0.084-0.168,0.168-0.336,0.253-0.505c2.911,0.801,5.764,1.728,8.024,3.962C219.553,293.754,219.065,293.763,218.577,293.772z"/>
<path fill-rule="evenodd" clip-rule="evenodd" fill="#FCF506" d="M340.576,337.91c-0.104-0.068-0.207-0.136-0.31-0.204
	c0.086-0.026,0.173-0.052,0.26-0.078c0,0.106,0,0.212,0,0.319L340.576,337.91z"/>
<path fill-rule="evenodd" clip-rule="evenodd" fill="#FCF506" d="M446.646,341.294c0.038-0.063,0.068-0.133,0.119-0.183
	c0.02-0.019,0.086,0.009,0.131,0.016c-0.095,0.04-0.188,0.08-0.283,0.12C446.613,341.247,446.646,341.294,446.646,341.294z"/>
<path fill-rule="evenodd" clip-rule="evenodd" fill="#FFFFFF" d="M397.204,427.167c0.807,0.323,1.613,0.647,2.421,0.972
	C398.817,427.814,398.011,427.49,397.204,427.167z"/>
<path fill-rule="evenodd" clip-rule="evenodd" fill="#FFFFFF" d="M411.145,420.008c-0.331-0.171-0.661-0.342-0.992-0.512
	C410.483,419.666,410.813,419.837,411.145,420.008z"/>
</svg>
