<!-- icon666.com - MILLIONS OF FREE VECTOR ICONS --><svg id="Line_gradient" viewBox="0 0 64 64" xmlns="http://www.w3.org/2000/svg" xmlns:xlink="http://www.w3.org/1999/xlink" data-name="Line gradient"><linearGradient id="linear-gradient" gradientUnits="userSpaceOnUse" x1="5.099" x2="58.901" y1="32" y2="32"><stop offset="0" stop-color="#00c0ff"></stop><stop offset="1" stop-color="#5558ff"></stop></linearGradient><path d="m57.90137 4h-51.80225a1 1 0 1 0 0 2h2.20361v30.56805a1.971 1.971 0 0 0 1.981 1.95636h9.89453v2.23737a2.89527 2.89527 0 0 0 3 2.77045h6.88513l-10.30753 14.98443a.93262.93262 0 0 0 .28564 1.32587 1.02913 1.02913 0 0 0 .54883.15747 1.0121 1.0121 0 0 0 .83643-.43091l10.5874-15.35009 10.56006 15.3501a1.02661 1.02661 0 0 0 1.38476.27344.93289.93289 0 0 0 .28516-1.32587l-10.308-14.98443h9.71716a2.89526 2.89526 0 0 0 3-2.77045v-2.23738h7.0635a1.97091 1.97091 0 0 0 1.98047-1.95636v-30.56805h2.2041a1 1 0 0 0 0-2zm-13.248 36.76178a.965.965 0 0 1 -1 .92352h-20.47515a.96532.96532 0 0 1 -1-.92352v-1.85413h22.4751zm-34.35064-4.19373v-30.56805h43.3949l.01917 30.54926zm24.74027-9.07586a.99989.99989 0 0 1 -1.41406 1.41406l-9.186-9.186-9.15967 9.186a.99989.99989 0 0 1 -1.41406-1.41406l9.18652-9.186a2.02793 2.02793 0 0 1 2.80127 0zm15.08789.606a.99989.99989 0 1 1 -1.41406 1.41407l-9.18164-9.18164-4.38672 4.41357a.99989.99989 0 0 1 -1.41406-1.41406l4.41308-4.41358a2.0288 2.0288 0 0 1 2.80274.00049zm-17.64746-8.083a3.39624 3.39624 0 1 0 -3.396-3.396 3.39994 3.39994 0 0 0 3.39597 3.39595zm0-4.79248a1.39624 1.39624 0 1 1 -1.396 1.39648 1.39775 1.39775 0 0 1 1.39597-1.39653z" fill="url(#linear-gradient)"></path></svg>